<svg width="128" height="128" viewBox="0 0 128 128" fill="none" xmlns="http://www.w3.org/2000/svg">
<rect width="128" height="128" rx="18" fill="#212224"/>
<path d="M46.998 57.4521C46.776 55.8376 46.2311 54.445 45.3633 53.2744C44.5156 52.0837 43.4056 51.1755 42.0332 50.5498C40.6608 49.9242 39.137 49.6113 37.4619 49.6113C35.1813 49.6113 33.1833 50.1865 31.4678 51.3369C29.7725 52.4671 28.4505 54.1221 27.502 56.3018C26.5534 58.4613 26.0791 61.0547 26.0791 64.082C26.0791 67.1901 26.5534 69.8239 27.502 71.9834C28.4505 74.1227 29.7725 75.7575 31.4678 76.8877C33.1833 77.9977 35.151 78.5527 37.3711 78.5527C39.0462 78.5527 40.5498 78.25 41.8818 77.6445C43.234 77.0391 44.3542 76.1813 45.2422 75.0713C46.1302 73.9411 46.7155 72.599 46.998 71.0449L56.2314 71.1357C55.8883 73.8805 54.8994 76.4336 53.2646 78.7949C51.6501 81.1562 49.4704 83.0534 46.7256 84.4863C43.9808 85.8991 40.8223 86.6055 37.25 86.6055C33.3346 86.6055 29.833 85.7174 26.7451 83.9414C23.6572 82.1452 21.2354 79.5518 19.4795 76.1611C17.7438 72.7503 16.876 68.724 16.876 64.082C16.876 59.3997 17.7539 55.3633 19.5098 51.9727C21.2858 48.582 23.7077 45.9987 26.7754 44.2227C29.8633 42.4466 33.3548 41.5586 37.25 41.5586C40.6204 41.5586 43.668 42.1842 46.3926 43.4355C49.1172 44.6868 51.3271 46.5133 53.0225 48.915C54.738 51.2965 55.8076 54.1423 56.2314 57.4521H46.998ZM71.3379 86H62.377V42.1641H71.0957V58.875H71.459C72.2461 56.9173 73.4671 55.4036 75.1221 54.334C76.7972 53.2441 78.8457 52.6992 81.2676 52.6992C83.5684 52.6992 85.5765 53.1937 87.292 54.1826C89.0075 55.1715 90.3294 56.5944 91.2578 58.4512C92.1862 60.3079 92.6504 62.5078 92.6504 65.0508V86H83.6895V66.5947C83.6895 65.2425 83.4574 64.082 82.9932 63.1133C82.529 62.1445 81.8529 61.4079 80.9648 60.9033C80.0768 60.3988 79.0072 60.1465 77.7559 60.1465C76.4844 60.1465 75.3743 60.4189 74.4258 60.9639C73.4772 61.4886 72.7204 62.2656 72.1553 63.2949C71.6104 64.3242 71.3379 65.5452 71.3379 66.958V86ZM104.851 86.5449C103.942 86.5449 103.095 86.3128 102.308 85.8486C101.521 85.3643 100.905 84.7386 100.461 83.9717C100.017 83.1846 99.7949 82.3369 99.7949 81.4287C99.7949 80.5407 100.017 79.7132 100.461 78.9463C100.905 78.1592 101.521 77.5436 102.308 77.0996C103.095 76.6556 103.942 76.4336 104.851 76.4336C105.759 76.4336 106.596 76.6556 107.363 77.0996C108.15 77.5436 108.776 78.1592 109.24 78.9463C109.704 79.7132 109.937 80.5407 109.937 81.4287C109.937 82.3369 109.704 83.1846 109.24 83.9717C108.776 84.7386 108.15 85.3643 107.363 85.8486C106.596 86.3128 105.759 86.5449 104.851 86.5449Z" fill="white"/>
</svg>
