<svg width="100" height="100" viewBox="0 0 100 100" fill="none" xmlns="http://www.w3.org/2000/svg">
<path fill-rule="evenodd" clip-rule="evenodd" d="M61.9567 18.2373L52.5 23.0927L62 18.2483L61.9567 18.2373Z" fill="white"/>
<path d="M23 38.5V58L78 29.5V10L23 38.5Z" fill="white"/>
<path d="M23 22.4257L43.5 27.6821L49.5 24.6225L52.5 23.0927L61.9567 18.2373L52.5 15.8124L49.5 15.0432L23 8.24834V22.4257Z" fill="#6E6E6E"/>
<path d="M52.5 7H49.5V15.0432L52.5 15.8124V7Z" fill="black"/>
<path d="M49.5 92.5H52.5V43.0927L49.5 44.6225V92.5Z" fill="black"/>
<path d="M23 58V38.5M23 58L49.5 44.6225M23 58L78 29.5M78 29.5V10M78 29.5L52.5 43.0927M23 38.5L49.5 24.6225M23 38.5L78 10M78 10L61.9567 18.2373M49.5 15.0432V7H52.5V15.8124M49.5 15.0432L23 8.24834V22.4257L43.5 27.6821L49.5 24.6225M49.5 15.0432L52.5 15.8124M49.5 24.6225L52.5 23.0927M49.5 44.6225V92.5H52.5V43.0927M49.5 44.6225L52.5 43.0927M52.5 15.8124L61.9567 18.2373M52.5 23.0927L62 18.2483L61.9567 18.2373M52.5 23.0927L61.9567 18.2373" stroke="black"/>
</svg>
