<svg width="435" height="201" viewBox="0 0 435 201" fill="none" xmlns="http://www.w3.org/2000/svg">
<rect width="435" height="201" fill="white"/>
<path d="M253.876 157L252.154 150.28H252.812L253.876 154.634C253.951 154.942 254.021 155.241 254.086 155.53C254.161 155.819 254.226 156.118 254.282 156.426H254.338C254.403 156.118 254.473 155.819 254.548 155.53C254.623 155.241 254.697 154.942 254.772 154.634L255.85 150.392H256.592L257.656 154.634C257.731 154.942 257.805 155.241 257.88 155.53C257.964 155.819 258.039 156.118 258.104 156.426H258.16C258.235 156.118 258.305 155.819 258.37 155.53C258.445 155.241 258.515 154.942 258.58 154.634L259.63 150.28H260.246L258.552 157H257.712L256.662 152.94C256.587 152.632 256.517 152.319 256.452 152.002C256.387 151.685 256.312 151.353 256.228 151.008H256.172C256.107 151.353 256.037 151.689 255.962 152.016C255.897 152.343 255.822 152.655 255.738 152.954L254.716 157H253.876ZM265.127 157V150.812H261.753V150.28H265.743V157H265.127ZM265.281 148.642C265.103 148.642 264.949 148.581 264.819 148.46C264.688 148.339 264.623 148.175 264.623 147.97C264.623 147.765 264.688 147.601 264.819 147.48C264.949 147.359 265.103 147.298 265.281 147.298C265.467 147.298 265.621 147.359 265.743 147.48C265.873 147.601 265.939 147.765 265.939 147.97C265.939 148.175 265.873 148.339 265.743 148.46C265.621 148.581 265.467 148.642 265.281 148.642ZM274.347 157.168C273.731 157.168 273.246 157.056 272.891 156.832C272.546 156.608 272.298 156.295 272.149 155.894C272.009 155.493 271.939 155.021 271.939 154.48V150.812H269.909V150.336L271.953 150.28L272.037 148.054H272.555V150.28H276.139V150.812H272.555V154.536C272.555 154.965 272.606 155.339 272.709 155.656C272.812 155.973 272.998 156.216 273.269 156.384C273.54 156.543 273.927 156.622 274.431 156.622C274.786 156.622 275.103 156.594 275.383 156.538C275.672 156.473 275.952 156.384 276.223 156.272L276.391 156.748C276.083 156.869 275.766 156.967 275.439 157.042C275.122 157.126 274.758 157.168 274.347 157.168ZM278.654 157V146.934H279.284V149.846L279.242 151.61H279.27C279.671 151.171 280.082 150.812 280.502 150.532C280.931 150.252 281.416 150.112 281.958 150.112C282.779 150.112 283.386 150.336 283.778 150.784C284.179 151.232 284.38 151.909 284.38 152.814V157H283.75V152.898C283.75 152.142 283.6 151.582 283.302 151.218C283.012 150.854 282.532 150.672 281.86 150.672C281.384 150.672 280.954 150.798 280.572 151.05C280.198 151.293 279.769 151.671 279.284 152.184V157H278.654ZM295.009 157V150.28H295.527L295.597 151.19H295.625C295.821 150.863 296.031 150.602 296.255 150.406C296.488 150.21 296.796 150.112 297.179 150.112C297.543 150.112 297.832 150.21 298.047 150.406C298.261 150.602 298.415 150.901 298.509 151.302C298.751 150.919 298.989 150.625 299.223 150.42C299.465 150.215 299.778 150.112 300.161 150.112C300.627 150.112 300.987 150.28 301.239 150.616C301.491 150.952 301.617 151.456 301.617 152.128V157H301.001V152.198C301.001 151.181 300.679 150.672 300.035 150.672C299.736 150.672 299.479 150.779 299.265 150.994C299.059 151.199 298.84 151.512 298.607 151.932V157H298.019V152.198C298.019 151.685 297.939 151.302 297.781 151.05C297.631 150.798 297.393 150.672 297.067 150.672C296.759 150.672 296.497 150.779 296.283 150.994C296.068 151.199 295.849 151.512 295.625 151.932V157H295.009ZM306.273 157.168C305.396 157.168 304.682 156.865 304.131 156.258C303.581 155.651 303.305 154.783 303.305 153.654C303.305 152.926 303.455 152.301 303.753 151.778C304.052 151.246 304.439 150.835 304.915 150.546C305.401 150.257 305.919 150.112 306.469 150.112C306.899 150.112 307.291 150.196 307.645 150.364C308 150.532 308.345 150.765 308.681 151.064H308.709L308.667 149.706V146.934H309.297V157H308.765L308.695 156.006H308.667C308.378 156.314 308.023 156.585 307.603 156.818C307.193 157.051 306.749 157.168 306.273 157.168ZM306.357 156.622C306.749 156.622 307.137 156.515 307.519 156.3C307.911 156.085 308.294 155.782 308.667 155.39V151.652C308.294 151.288 307.93 151.031 307.575 150.882C307.221 150.733 306.866 150.658 306.511 150.658C306.035 150.658 305.606 150.789 305.223 151.05C304.841 151.311 304.533 151.671 304.299 152.128C304.075 152.576 303.963 153.085 303.963 153.654C303.963 154.541 304.173 155.259 304.593 155.81C305.023 156.351 305.611 156.622 306.357 156.622ZM311.882 157L314.57 153.514L312.106 150.28H312.806L314.108 151.988C314.238 152.165 314.374 152.352 314.514 152.548C314.663 152.744 314.808 152.935 314.948 153.122H315.004C315.153 152.935 315.302 152.739 315.452 152.534C315.61 152.329 315.755 152.137 315.886 151.96L317.146 150.28H317.818L315.326 153.542L318.042 157H317.328L315.9 155.18C315.76 154.993 315.606 154.788 315.438 154.564C315.27 154.34 315.106 154.13 314.948 153.934H314.892C314.733 154.139 314.574 154.345 314.416 154.55C314.266 154.755 314.112 154.97 313.954 155.194L312.568 157H311.882ZM322.25 159.954L322.026 159.506C322.614 159.217 323.048 158.857 323.328 158.428C323.618 158.008 323.762 157.467 323.762 156.804L323.384 155.74L324.14 156.678C324.038 156.809 323.926 156.897 323.804 156.944C323.683 156.981 323.562 157 323.44 157C323.282 157 323.137 156.972 323.006 156.916C322.885 156.851 322.787 156.757 322.712 156.636C322.638 156.515 322.6 156.361 322.6 156.174C322.6 155.885 322.684 155.675 322.852 155.544C323.03 155.404 323.226 155.334 323.44 155.334C323.767 155.334 324.01 155.465 324.168 155.726C324.336 155.987 324.42 156.333 324.42 156.762C324.42 157.546 324.22 158.204 323.818 158.736C323.417 159.268 322.894 159.674 322.25 159.954ZM337.415 157V150.28H337.947L338.017 151.568H338.073C338.456 151.148 338.857 150.803 339.277 150.532C339.697 150.252 340.178 150.112 340.719 150.112C341.541 150.112 342.147 150.336 342.539 150.784C342.941 151.232 343.141 151.909 343.141 152.814V157H342.511V152.898C342.511 152.142 342.362 151.582 342.063 151.218C341.774 150.854 341.293 150.672 340.621 150.672C340.145 150.672 339.716 150.798 339.333 151.05C338.96 151.293 338.531 151.671 338.045 152.184V157H337.415ZM348.96 157.168C348.316 157.168 347.723 157.028 347.182 156.748C346.641 156.468 346.211 156.067 345.894 155.544C345.577 155.012 345.418 154.377 345.418 153.64C345.418 152.912 345.577 152.287 345.894 151.764C346.211 151.232 346.627 150.826 347.14 150.546C347.653 150.257 348.199 150.112 348.778 150.112C349.394 150.112 349.926 150.238 350.374 150.49C350.822 150.733 351.167 151.087 351.41 151.554C351.662 152.021 351.788 152.576 351.788 153.22C351.788 153.304 351.788 153.393 351.788 153.486C351.788 153.57 351.779 153.654 351.76 153.738H345.726V153.206H351.48L351.228 153.458C351.228 152.506 350.999 151.801 350.542 151.344C350.094 150.877 349.511 150.644 348.792 150.644C348.325 150.644 347.882 150.761 347.462 150.994C347.051 151.227 346.711 151.568 346.44 152.016C346.179 152.455 346.048 152.991 346.048 153.626C346.048 154.27 346.183 154.816 346.454 155.264C346.725 155.712 347.084 156.053 347.532 156.286C347.98 156.519 348.47 156.636 349.002 156.636C349.459 156.636 349.87 156.571 350.234 156.44C350.598 156.3 350.939 156.123 351.256 155.908L351.508 156.37C351.209 156.575 350.855 156.762 350.444 156.93C350.043 157.089 349.548 157.168 348.96 157.168ZM353.854 157L356.542 153.514L354.078 150.28H354.778L356.08 151.988C356.211 152.165 356.346 152.352 356.486 152.548C356.636 152.744 356.78 152.935 356.92 153.122H356.976C357.126 152.935 357.275 152.739 357.424 152.534C357.583 152.329 357.728 152.137 357.858 151.96L359.118 150.28H359.79L357.298 153.542L360.014 157H359.3L357.872 155.18C357.732 154.993 357.578 154.788 357.41 154.564C357.242 154.34 357.079 154.13 356.92 153.934H356.864C356.706 154.139 356.547 154.345 356.388 154.55C356.239 154.755 356.085 154.97 355.926 155.194L354.54 157H353.854ZM366.687 157.168C366.071 157.168 365.586 157.056 365.231 156.832C364.886 156.608 364.638 156.295 364.489 155.894C364.349 155.493 364.279 155.021 364.279 154.48V150.812H362.249V150.336L364.293 150.28L364.377 148.054H364.895V150.28H368.479V150.812H364.895V154.536C364.895 154.965 364.946 155.339 365.049 155.656C365.152 155.973 365.338 156.216 365.609 156.384C365.88 156.543 366.267 156.622 366.771 156.622C367.126 156.622 367.443 156.594 367.723 156.538C368.012 156.473 368.292 156.384 368.563 156.272L368.731 156.748C368.423 156.869 368.106 156.967 367.779 157.042C367.462 157.126 367.098 157.168 366.687 157.168ZM372.239 160.206C371.922 160.206 371.6 160.159 371.273 160.066C370.947 159.982 370.657 159.879 370.405 159.758L370.657 159.268C370.872 159.38 371.124 159.473 371.413 159.548C371.703 159.632 371.992 159.674 372.281 159.674C372.813 159.674 373.219 159.585 373.499 159.408C373.779 159.24 373.975 158.997 374.087 158.68C374.199 158.372 374.255 158.013 374.255 157.602V150.812H370.881V150.28H374.871V157.518C374.871 157.929 374.825 158.297 374.731 158.624C374.647 158.96 374.503 159.245 374.297 159.478C374.101 159.721 373.835 159.903 373.499 160.024C373.163 160.145 372.743 160.206 372.239 160.206ZM374.409 148.642C374.232 148.642 374.078 148.581 373.947 148.46C373.817 148.339 373.751 148.175 373.751 147.97C373.751 147.765 373.817 147.601 373.947 147.48C374.078 147.359 374.232 147.298 374.409 147.298C374.596 147.298 374.75 147.359 374.871 147.48C375.002 147.601 375.067 147.765 375.067 147.97C375.067 148.175 375.002 148.339 374.871 148.46C374.75 148.581 374.596 148.642 374.409 148.642ZM382.384 157.168C381.693 157.168 381.068 157.061 380.508 156.846C379.948 156.631 379.467 156.384 379.066 156.104L379.388 155.656C379.761 155.945 380.186 156.183 380.662 156.37C381.138 156.547 381.731 156.636 382.44 156.636C383.131 156.636 383.649 156.505 383.994 156.244C384.339 155.973 384.512 155.661 384.512 155.306C384.512 155.157 384.484 155.012 384.428 154.872C384.381 154.732 384.279 154.601 384.12 154.48C383.971 154.349 383.737 154.228 383.42 154.116C383.103 154.004 382.678 153.892 382.146 153.78C381.297 153.612 380.634 153.379 380.158 153.08C379.691 152.781 379.458 152.389 379.458 151.904C379.458 151.409 379.673 150.989 380.102 150.644C380.531 150.289 381.194 150.112 382.09 150.112C382.538 150.112 383 150.191 383.476 150.35C383.952 150.499 384.349 150.695 384.666 150.938L384.33 151.386C384.041 151.162 383.7 150.985 383.308 150.854C382.925 150.714 382.505 150.644 382.048 150.644C381.553 150.644 381.166 150.7 380.886 150.812C380.606 150.924 380.405 151.073 380.284 151.26C380.163 151.447 380.102 151.647 380.102 151.862C380.102 152.217 380.279 152.497 380.634 152.702C380.998 152.907 381.558 153.089 382.314 153.248C383.089 153.407 383.681 153.579 384.092 153.766C384.503 153.953 384.783 154.167 384.932 154.41C385.081 154.653 385.156 154.942 385.156 155.278C385.156 155.614 385.049 155.927 384.834 156.216C384.619 156.496 384.302 156.725 383.882 156.902C383.471 157.079 382.972 157.168 382.384 157.168Z" fill="#353535"/>
<path d="M145.545 123V76.4545H163.909C167.439 76.4545 170.447 77.1288 172.932 78.4773C175.417 79.8106 177.311 81.6667 178.614 84.0455C179.932 86.4091 180.591 89.1364 180.591 92.2273C180.591 95.3182 179.924 98.0455 178.591 100.409C177.258 102.773 175.326 104.614 172.795 105.932C170.28 107.25 167.235 107.909 163.659 107.909H151.955V100.023H162.068C163.962 100.023 165.523 99.697 166.75 99.0455C167.992 98.3788 168.917 97.4621 169.523 96.2955C170.144 95.1136 170.455 93.7576 170.455 92.2273C170.455 90.6818 170.144 89.3333 169.523 88.1818C168.917 87.0151 167.992 86.1136 166.75 85.4773C165.508 84.8258 163.932 84.5 162.023 84.5H155.386V123H145.545ZM202.011 123.682C198.481 123.682 195.428 122.932 192.852 121.432C190.292 119.917 188.314 117.811 186.92 115.114C185.527 112.402 184.83 109.258 184.83 105.682C184.83 102.076 185.527 98.9242 186.92 96.2273C188.314 93.5152 190.292 91.4091 192.852 89.9091C195.428 88.3939 198.481 87.6364 202.011 87.6364C205.542 87.6364 208.587 88.3939 211.148 89.9091C213.723 91.4091 215.708 93.5152 217.102 96.2273C218.496 98.9242 219.193 102.076 219.193 105.682C219.193 109.258 218.496 112.402 217.102 115.114C215.708 117.811 213.723 119.917 211.148 121.432C208.587 122.932 205.542 123.682 202.011 123.682ZM202.057 116.182C203.663 116.182 205.004 115.727 206.08 114.818C207.155 113.894 207.966 112.636 208.511 111.045C209.072 109.455 209.352 107.644 209.352 105.614C209.352 103.583 209.072 101.773 208.511 100.182C207.966 98.5909 207.155 97.3333 206.08 96.4091C205.004 95.4848 203.663 95.0227 202.057 95.0227C200.436 95.0227 199.072 95.4848 197.966 96.4091C196.875 97.3333 196.049 98.5909 195.489 100.182C194.943 101.773 194.67 103.583 194.67 105.614C194.67 107.644 194.943 109.455 195.489 111.045C196.049 112.636 196.875 113.894 197.966 114.818C199.072 115.727 200.436 116.182 202.057 116.182ZM254.534 98.0455L245.67 98.5909C245.519 97.8333 245.193 97.1515 244.693 96.5455C244.193 95.9242 243.534 95.4318 242.716 95.0682C241.913 94.6894 240.951 94.5 239.83 94.5C238.33 94.5 237.064 94.8182 236.034 95.4545C235.004 96.0758 234.489 96.9091 234.489 97.9545C234.489 98.7879 234.822 99.4924 235.489 100.068C236.155 100.644 237.299 101.106 238.92 101.455L245.239 102.727C248.633 103.424 251.163 104.545 252.83 106.091C254.496 107.636 255.33 109.667 255.33 112.182C255.33 114.47 254.655 116.477 253.307 118.205C251.973 119.932 250.14 121.28 247.807 122.25C245.489 123.205 242.814 123.682 239.784 123.682C235.163 123.682 231.481 122.72 228.739 120.795C226.011 118.856 224.413 116.22 223.943 112.886L233.466 112.386C233.754 113.795 234.451 114.871 235.557 115.614C236.663 116.341 238.08 116.705 239.807 116.705C241.504 116.705 242.867 116.379 243.898 115.727C244.943 115.061 245.473 114.205 245.489 113.159C245.473 112.28 245.102 111.561 244.375 111C243.648 110.424 242.527 109.985 241.011 109.682L234.966 108.477C231.557 107.795 229.019 106.614 227.352 104.932C225.701 103.25 224.875 101.106 224.875 98.5C224.875 96.2576 225.481 94.3258 226.693 92.7045C227.92 91.0833 229.64 89.8333 231.852 88.9545C234.08 88.0758 236.686 87.6364 239.67 87.6364C244.08 87.6364 247.549 88.5682 250.08 90.4318C252.625 92.2955 254.11 94.8333 254.534 98.0455ZM279.994 88.0909V95.3636H258.972V88.0909H279.994ZM263.744 79.7273H273.426V112.273C273.426 113.167 273.563 113.864 273.835 114.364C274.108 114.848 274.487 115.189 274.972 115.386C275.472 115.583 276.047 115.682 276.699 115.682C277.153 115.682 277.608 115.644 278.062 115.568C278.517 115.477 278.866 115.409 279.108 115.364L280.631 122.568C280.146 122.72 279.464 122.894 278.585 123.091C277.706 123.303 276.638 123.432 275.381 123.477C273.047 123.568 271.002 123.258 269.244 122.545C267.502 121.833 266.146 120.727 265.176 119.227C264.206 117.727 263.729 115.833 263.744 113.545V79.7273Z" fill="#262626"/>
<path d="M78.5 59.5H75.5V67.5432L78.5 68.3124V59.5Z" fill="black"/>
<path d="M75.5 145H78.5V95.5927L75.5 97.1225V145Z" fill="black"/>
<path d="M49 74.9257L69.5 80.1821L75.5 77.1225L78.5 75.5927L88 70.7483L78.5 68.3124L75.5 67.5432L49 60.7483V74.9257Z" fill="#6E6E6E"/>
<path d="M75.5 67.5432V59.5H78.5V68.3124M75.5 67.5432L49 60.7483V74.9257L69.5 80.1821L75.5 77.1225M75.5 67.5432L78.5 68.3124M75.5 77.1225L49 91V110.5L75.5 97.1225M75.5 77.1225L78.5 75.5927M75.5 97.1225V145H78.5V95.5927M75.5 97.1225L78.5 95.5927M78.5 68.3124L88 70.7483L78.5 75.5927M78.5 75.5927L104 62.5V82L78.5 95.5927" stroke="black"/>
<path d="M306.692 123.192C300.591 123.235 296.431 120.952 294.212 116.344C293.444 114.723 293.06 112.696 293.06 110.264C293.06 107.789 293.273 105.165 293.7 102.392C294.553 96.8453 296.196 91.7253 298.628 87.032C299.865 84.6427 301.252 82.5947 302.788 80.888C306.159 77.1333 309.913 75.2773 314.052 75.32C315.887 75.32 317.316 75.832 318.34 76.856C319.407 77.8373 319.94 79.2667 319.94 81.144C319.94 83.0213 319.385 84.92 318.276 86.84C317.167 88.7173 315.737 90.68 313.988 92.728C312.281 94.7333 310.383 96.8453 308.292 99.064C306.201 101.283 304.153 103.693 302.148 106.296V108.856C302.148 111.245 302.66 112.995 303.684 114.104C304.708 115.213 305.903 115.768 307.268 115.768C310.937 115.768 314.18 113.955 316.996 110.328C318.148 108.835 319.023 108.088 319.62 108.088C320.217 108.088 320.516 108.813 320.516 110.264C320.516 111.715 320.111 113.208 319.3 114.744C318.532 116.237 317.508 117.624 316.228 118.904C314.948 120.141 313.476 121.165 311.812 121.976C310.148 122.787 308.441 123.192 306.692 123.192ZM310.148 88.824C311.044 87.7147 311.748 86.712 312.26 85.816C312.772 84.92 313.028 84.0027 313.028 83.064C313.028 82.0827 312.687 81.592 312.004 81.592C310.511 81.592 308.847 83.128 307.012 86.2C305.22 89.272 303.876 93.304 302.98 98.296C304.431 96.0773 305.753 94.2213 306.948 92.728C308.185 91.2347 309.252 89.9333 310.148 88.824ZM342.589 117.56C339.218 121.528 335.165 123.512 330.429 123.512C325.735 123.512 322.215 122.317 319.869 119.928C317.522 117.496 316.37 114.488 316.413 110.904C316.37 105.827 317.97 101.453 321.213 97.784C324.455 94.1147 328.701 92.28 333.949 92.28C336.338 92.28 338.258 92.5787 339.709 93.176C342.226 94.2 343.485 95.16 343.485 96.056C343.485 96.7387 341.714 97.1013 338.173 97.144C334.674 97.144 331.73 98.36 329.341 100.792C326.994 103.181 325.821 106.211 325.821 109.88C325.821 111.8 326.375 113.421 327.485 114.744C328.637 116.024 330.237 116.664 332.285 116.664C334.375 116.664 336.103 116.237 337.469 115.384C334.439 113.336 332.925 110.371 332.925 106.488C332.882 104.44 333.607 102.584 335.101 100.92C336.637 99.2133 338.578 98.36 340.925 98.36C343.314 98.3173 345.021 98.9573 346.045 100.28C347.069 101.603 347.581 103.309 347.581 105.4C347.581 107.448 347.09 109.624 346.109 111.928H346.493C348.37 111.885 349.991 111.224 351.357 109.944C351.869 109.432 352.295 108.984 352.637 108.6C353.021 108.216 353.405 108.024 353.789 108.024C354.386 108.024 354.685 108.728 354.685 110.136C354.685 112.739 353.917 114.701 352.381 116.024C350.845 117.304 349.138 117.944 347.261 117.944C345.426 117.944 343.869 117.816 342.589 117.56ZM342.013 110.136C342.738 108.6 343.101 107.107 343.101 105.656C343.101 104.205 342.631 103.48 341.693 103.48C341.309 103.48 340.989 103.757 340.733 104.312C340.477 104.867 340.349 105.4 340.349 105.912C340.349 107.619 340.903 109.027 342.013 110.136ZM375.995 93.88C376.592 92.0027 377.552 91.064 378.875 91.064C380.069 91.1067 381.2 91.96 382.267 93.624C383.333 95.2453 383.867 96.504 383.867 97.4C383.781 99.1493 383.248 101.944 382.267 105.784C381.285 109.581 379.899 114.531 378.107 120.632C380.923 118.456 383.696 115.619 386.427 112.12C387.365 110.925 388.155 109.965 388.795 109.24C389.477 108.472 390.032 108.088 390.459 108.088C391.056 108.088 391.355 108.771 391.355 110.136C391.355 112.824 389.84 115.96 386.811 119.544C383.824 123.128 380.155 125.923 375.803 127.928C375.291 129.635 374.736 131.256 374.139 132.792C373.541 134.328 372.773 135.672 371.835 136.824C369.787 139.299 366.672 140.536 362.491 140.536C359.675 140.536 357.264 139.725 355.259 138.104C353.296 136.483 352.315 134.456 352.315 132.024C352.315 130.701 352.741 129.656 353.595 128.888C354.491 128.12 355.707 127.501 357.243 127.032C358.779 126.563 360.571 126.157 362.619 125.816C364.709 125.475 366.928 125.048 369.275 124.536C369.488 123.811 369.659 123.107 369.787 122.424C369.957 121.699 370.128 120.973 370.299 120.248C367.952 122.424 365.072 123.512 361.659 123.512C358.288 123.512 355.685 122.573 353.851 120.696C352.016 118.819 351.12 116.536 351.163 113.848C351.163 106.595 353.573 100.877 358.395 96.696C361.723 93.8373 365.179 92.408 368.763 92.408C370 92.408 371.323 92.5573 372.731 92.856C374.181 93.1547 375.269 93.496 375.995 93.88ZM360.571 111.736C360.571 115.021 361.787 116.664 364.219 116.664C365.584 116.664 366.971 116.152 368.378 115.128C369.787 114.104 370.917 112.44 371.771 110.136C372.411 107.149 373.072 104.397 373.755 101.88C374.48 99.3627 374.971 97.6133 375.227 96.632C371.643 97.1013 368.293 98.7013 365.179 101.432C362.107 104.163 360.571 107.597 360.571 111.736ZM367.291 130.424C365.755 130.723 364.411 130.957 363.259 131.128C362.107 131.299 361.147 131.448 360.379 131.576C359.653 131.704 359.099 131.853 358.715 132.024C358.373 132.195 358.203 132.472 358.203 132.856C358.203 133.624 358.672 134.285 359.611 134.84C360.592 135.395 361.552 135.651 362.491 135.608C364.112 135.608 365.712 133.88 367.291 130.424Z" fill="black"/>
</svg>
